<svg width="66" height="65" viewBox="0 0 66 65" fill="none" xmlns="http://www.w3.org/2000/svg">
<path fill-rule="evenodd" clip-rule="evenodd" d="M0.0714111 10.1562C0.0714111 4.54711 4.61852 0 10.2277 0H54.9152C60.5243 0 65.0714 4.54711 65.0714 10.1562V54.8438C65.0714 60.4529 60.5243 65 54.9152 65H10.2277C4.61852 65 0.0714111 60.4529 0.0714111 54.8438V10.1562ZM16.3214 32.8403C16.3214 23.8954 23.5767 16.64 32.5217 16.64C41.4667 16.64 48.722 23.8954 48.8214 32.8403C48.8214 39.9963 44.2495 46.059 37.7893 48.2455C36.9942 48.3449 36.696 47.848 36.696 47.4504V42.9779C36.696 41.4871 36.1991 40.4932 35.6028 39.9963C39.1808 39.5987 42.9575 38.3067 42.9575 32.0452C42.9575 30.2562 42.2618 28.7654 41.2679 27.6721C41.2758 27.6409 41.2867 27.6017 41.2997 27.5549C41.4518 27.006 41.8933 25.4132 41.0691 23.3984C41.0691 23.3984 39.6777 23.0009 36.5966 25.088C35.3046 24.7899 33.9131 24.5911 32.5217 24.5911C31.1303 24.5911 29.7389 24.6905 28.4468 25.088C25.3657 23.0009 23.9743 23.3984 23.9743 23.3984C23.0959 25.5456 23.6552 27.2136 23.7697 27.5553L23.7756 27.5727C22.6822 28.7654 22.0859 30.1568 22.0859 31.9458C22.0859 38.2073 25.8627 39.5987 29.4407 39.9963C29.0431 40.3938 28.5462 41.0895 28.4468 42.1828C27.5523 42.5804 25.2664 43.2761 23.7756 40.7914C23.7756 40.7914 22.8811 39.2012 21.2908 39.1018C21.2908 39.1018 19.7007 39.1018 21.1915 40.0957C21.1915 40.0957 22.2847 40.5926 22.9804 42.481C22.9804 42.481 23.9743 45.6614 28.4468 44.6675V47.4504C28.4468 47.848 28.1486 48.3449 27.3536 48.2455C20.9926 46.059 16.3214 39.9963 16.3214 32.8403Z" fill="#B50A34"/>
</svg>
