<svg width="102" height="103" viewBox="0 0 102 103" fill="none" xmlns="http://www.w3.org/2000/svg">
<path d="M44.7525 46.1025C44.3275 44.785 43.945 43.51 43.52 42.1925C43.095 40.875 42.7125 39.6425 42.3725 38.41C42.0325 37.22 41.735 36.115 41.4375 35.095H41.3525C40.97 36.9225 40.5025 38.75 39.9075 40.5775C39.27 42.6175 38.6325 44.7425 37.9525 46.8675C37.3575 49.035 36.72 51.0325 36.0825 52.8175H46.8775C46.6225 51.9207 46.2825 50.8625 45.9 49.7532C45.5175 48.61 45.135 47.3775 44.7525 46.1025V46.1025ZM83.9375 1.77496H18.0625C8.075 1.77496 0 9.84996 0 19.8375V83.1625C0 93.15 8.075 101.225 18.0625 101.225H83.9375C93.925 101.225 102 93.15 102 83.1625V19.8375C102 9.84996 93.925 1.77496 83.9375 1.77496ZM62.475 72.0275H53.5883C53.295 72.07 52.9975 71.8575 52.9125 71.56L49.4275 61.445H33.6175L30.3875 71.4325C30.3025 71.815 29.9625 72.07 29.58 72.0317H21.59C21.1225 72.0317 20.995 71.7725 21.1225 71.2667L34.8075 31.865C34.935 31.44 35.0625 30.9725 35.2325 30.4625C35.4025 29.57 35.4875 28.635 35.4875 27.7C35.445 27.4875 35.615 27.275 35.8275 27.2325H46.835C47.175 27.2325 47.345 27.36 47.3875 27.5725L62.9 71.3475C63.0275 71.8107 62.9 72.0275 62.475 72.0275V72.0275ZM76.925 71.39C76.925 71.8575 76.7593 72.07 76.3768 72.07H68.0425C67.6175 72.07 67.405 71.8107 67.405 71.39V38.665C67.405 38.24 67.5793 38.07 67.9618 38.07H76.3768C76.7593 38.07 76.925 38.2825 76.925 38.665V71.39V71.39ZM76.0368 33.0125C75.5348 33.5222 74.9297 33.9187 74.2619 34.1752C73.5941 34.4318 72.8791 34.5425 72.165 34.5C70.7625 34.5425 69.4025 33.99 68.3783 33.0125C67.4045 31.9478 66.8859 30.5445 66.9332 29.1025C66.8907 27.6575 67.4432 26.2975 68.459 25.32C69.4875 24.3425 70.8475 23.8325 72.25 23.8325C73.9118 23.8325 75.1782 24.3425 76.1175 25.32C77.0525 26.34 77.5625 27.7 77.52 29.1025C77.5625 30.5475 77.0525 31.95 76.0368 33.0125V33.0125Z" fill="#220927"/>
</svg>
