<svg width="90" height="103" viewBox="0 0 90 103" fill="none" xmlns="http://www.w3.org/2000/svg">
<path d="M45 102.195C43.654 102.195 42.2879 101.833 41.1027 101.149L28.7076 93.8064C26.8594 92.7603 27.7634 92.3982 28.3661 92.197C30.8371 91.332 31.3393 91.1509 33.971 89.6421C34.2522 89.4812 34.6138 89.5416 34.8951 89.7226L44.4174 95.3755C44.7589 95.5767 45.2411 95.5767 45.5625 95.3755L82.6674 73.9306C83.0089 73.7295 83.2299 73.3271 83.2299 72.9248V30.0349C83.2299 29.6125 83.0089 29.2302 82.6473 29.0089L45.5625 7.58413C45.221 7.38296 44.7589 7.38296 44.4174 7.58413L7.35268 29.0291C6.99107 29.2302 6.77009 29.6326 6.77009 30.055V72.9248C6.77009 73.3271 6.99107 73.7294 7.35268 73.9105L17.5179 79.7847C23.0424 82.5408 26.4174 79.3019 26.4174 76.0228V33.6962C26.4174 33.0927 26.8996 32.63 27.5022 32.63H32.2031C32.7857 32.63 33.2879 33.0927 33.2879 33.6962V76.0429C33.2879 83.4058 29.2701 87.6304 22.2991 87.6304C20.1496 87.6304 18.4621 87.6304 13.7612 85.2968L4.03795 79.6841C1.62723 78.2961 0.140625 75.7009 0.140625 72.9046V30.0349C0.140625 27.2587 1.62723 24.6435 4.03795 23.2554L41.1027 1.8105C43.4531 0.482764 46.567 0.482764 48.8973 1.8105L86.0022 23.2755C88.4129 24.6636 89.8995 27.2587 89.8995 30.055V72.9248C89.8995 75.7009 88.4129 78.2961 86.0022 79.7043L48.8973 101.149C47.7121 101.833 46.3661 102.195 45 102.195ZM74.9531 59.9291C74.9531 51.9023 69.529 49.7699 58.1384 48.2611C46.6071 46.7322 45.442 45.9476 45.442 43.2519C45.442 41.0189 46.4263 38.0416 54.9643 38.0416C62.5781 38.0416 65.3906 39.6912 66.5558 44.8412C66.6562 45.324 67.0982 45.6861 67.6004 45.6861H72.4219C72.7232 45.6861 73.0045 45.5654 73.2054 45.3441C73.4062 45.1228 73.5067 44.821 73.4866 44.5193C72.7433 35.6476 66.8571 31.5236 54.9643 31.5236C44.3772 31.5236 38.0692 35.9896 38.0692 43.4933C38.0692 51.6207 44.3571 53.8738 54.5022 54.8796C66.6562 56.0666 67.6004 57.857 67.6004 60.2509C67.6004 64.3951 64.2656 66.1654 56.4509 66.1654C46.6272 66.1654 44.4777 63.691 43.7545 58.8025C43.6741 58.2794 43.2321 57.8972 42.6897 57.8972H37.8884C37.2857 57.8972 36.8237 58.38 36.8237 58.9634C36.8237 65.2199 40.2187 72.6834 56.471 72.6834C68.2031 72.6632 74.9531 68.0162 74.9531 59.9291V59.9291Z" fill="#220927"/>
</svg>
