<svg width="64" height="65" viewBox="0 0 64 65" fill="none" xmlns="http://www.w3.org/2000/svg">
<path d="M37.2 32.5L28.8 27.7V37.3L37.2 32.5Z" fill="#B50A34"/>
<path fill-rule="evenodd" clip-rule="evenodd" d="M0 10.5C0 4.97715 4.47715 0.5 10 0.5H54C59.5228 0.5 64 4.97715 64 10.5V54.5C64 60.0228 59.5228 64.5 54 64.5H10C4.47715 64.5 0 60.0228 0 54.5V10.5ZM44.4 21.9C45.8 22.3 46.8 23.3 47.2 24.7C48 27.3 48 32.5 48 32.5C48 32.5 48 37.7 47.4 40.3C47 41.7 46 42.7 44.6 43.1C42 43.7 32 43.7 32 43.7C32 43.7 21.8 43.7 19.4 43.1C18 42.7 17 41.7 16.6 40.3C16 37.7 16 32.5 16 32.5C16 32.5 16 27.3 16.4 24.7C16.8 23.3 17.8 22.3 19.2 21.9C21.8 21.3 31.8 21.3 31.8 21.3C31.8 21.3 42 21.3 44.4 21.9Z" fill="#B50A34"/>
</svg>
