<svg width="103" height="103" viewBox="0 0 103 103" fill="none" xmlns="http://www.w3.org/2000/svg">
<path d="M87.55 20.6C88.9159 20.6 90.2258 20.0574 91.1916 19.0916C92.1574 18.1258 92.7 16.8159 92.7 15.45C92.7 14.0841 92.1574 12.7742 91.1916 11.8084C90.2258 10.8426 88.9159 10.3 87.55 10.3C86.1841 10.3 84.8742 10.8426 83.9084 11.8084C82.9426 12.7742 82.4 14.0841 82.4 15.45C82.4 16.8159 82.9426 18.1258 83.9084 19.0916C84.8742 20.0574 86.1841 20.6 87.55 20.6ZM87.55 0C91.6476 0 95.5774 1.62776 98.4748 4.5252C101.372 7.42264 103 11.3524 103 15.45V46.35H82.4V25.75H20.6V46.35H0V15.45C0 11.3524 1.62776 7.42264 4.5252 4.5252C7.42264 1.62776 11.3524 0 15.45 0H87.55ZM82.4 83.6875C82.4 85.6445 81.3185 87.344 79.6705 88.2195L54.4355 102.073C53.56 102.691 52.5815 103 51.5 103C50.4185 103 49.3885 102.691 48.5645 102.073L23.3295 88.2195C22.5039 87.7856 21.8129 87.1338 21.3317 86.3348C20.8505 85.5358 20.5974 84.6202 20.6 83.6875V56.65C20.6 54.693 21.6815 52.9935 23.3295 52.118L48.5645 39.552C49.3885 38.934 50.4185 38.625 51.5 38.625C52.5815 38.625 53.56 38.934 54.4355 39.552L79.6705 52.118C81.3185 52.9935 82.4 54.693 82.4 56.65V83.6875ZM51.5 49.6975L36.256 56.65L51.5 64.89L66.744 56.65L51.5 49.6975ZM30.9 80.649L46.35 89.0435V73.7995L30.9 65.4565V80.649ZM72.1 80.649V65.4565L56.65 73.7995V89.0435L72.1 80.649Z" fill="#220927"/>
</svg>
