<svg width="64" height="63" viewBox="0 0 64 63" fill="none" xmlns="http://www.w3.org/2000/svg">
<path fill-rule="evenodd" clip-rule="evenodd" d="M10.9287 0C5.40586 0 0.928711 4.47715 0.928711 10V53C0.928711 58.5228 5.40586 63 10.9287 63H53.9287C59.4516 63 63.9287 58.5228 63.9287 53V10C63.9287 4.47715 59.4516 0 53.9287 0H10.9287ZM51.334 38.6162C51.7187 39.2107 51.9286 39.9102 51.9286 40.6446C51.9286 41.4839 51.7537 41.9035 51.1941 42.8828L48.2216 48.0236L29.4418 15.5H35.8766C37.3104 15.5 38.5344 16.3043 39.1639 17.4934L51.334 38.6162ZM18.0412 45.9953L14.9287 40.6097H37.8351L42.1016 48.0586H21.3635C19.9296 48.0586 18.6707 47.2193 18.0412 45.9953ZM34.7576 35.2939L26.3645 20.7807L17.9713 35.2939H34.7576Z" fill="#B50A34"/>
</svg>
