<svg width="121" height="101" viewBox="0 0 121 101" fill="none" xmlns="http://www.w3.org/2000/svg">
<path d="M63.0532 57.7067C63.2744 53.7096 65.2238 50.1919 68.1718 47.6929C71.2669 45.1128 75.1724 43.7119 79.1982 43.7377C83.4438 43.7377 87.3306 45.2359 90.2307 47.6929C93.1727 50.1919 95.128 53.7156 95.3493 57.7067C95.5765 61.8177 93.9321 65.6351 91.038 68.4637C87.8522 71.5096 83.607 73.1908 79.2042 73.15C74.7974 73.1933 70.5476 71.512 67.3585 68.4637C64.4704 65.6351 62.82 61.8177 63.0532 57.7067Z" fill="#220927"/>
<path d="M37.3229 65.797C37.3528 67.3551 37.8551 70.3934 38.5966 72.7726C40.2121 77.8892 42.9221 82.5909 46.5375 86.5498C50.413 90.8242 55.1469 94.2287 60.4283 96.5397C66.1729 99.0795 72.3875 100.376 78.6662 100.345C84.9507 100.353 91.1665 99.0359 96.9101 96.4798C102.184 94.1408 106.912 90.7216 110.789 86.442C114.397 82.4704 117.102 77.7617 118.718 72.6407C119.507 70.1391 120.008 67.5555 120.213 64.9401C120.777 57.3773 118.916 49.8316 114.903 43.4022C112.453 39.4769 109.325 36.0209 105.664 33.1966L105.67 33.1906L68.3035 4.43157L68.2078 4.34767C65.7501 2.46596 61.6242 2.47195 58.9333 4.35966C56.2006 6.27134 55.8957 9.4295 58.3115 11.4311L58.3055 11.4371L73.8885 24.1476L26.3921 24.2016H26.3203C22.3977 24.2016 18.6245 26.7904 17.8771 30.0505C17.1117 33.3764 19.7786 36.1331 23.8627 36.145L23.8567 36.163L47.9368 36.1151L4.95503 69.1709L4.79358 69.2968C0.74536 72.407 -0.564184 77.5787 1.98315 80.8567C4.57832 84.1887 10.0796 84.1887 14.1816 80.8687L37.6338 61.6381C37.6398 61.6381 37.299 64.2329 37.3229 65.797V65.797ZM97.5858 74.4865C92.7543 79.4245 85.9972 82.2231 78.6722 82.2351C71.3411 82.247 64.5841 79.4724 59.7466 74.5464C57.4597 72.2522 55.697 69.4878 54.5802 66.4442C53.5252 63.55 53.119 60.4585 53.3902 57.3892C53.6533 54.3629 54.5443 51.4744 55.9854 48.8676C57.3966 46.2967 59.3459 43.9835 61.7378 42.0119C66.5354 38.1456 72.516 36.0546 78.6722 36.0911C84.8225 36.0415 90.8023 38.1153 95.6066 41.964C97.9924 43.9176 99.9418 46.2248 101.353 48.7897C102.788 51.4025 103.685 54.279 103.948 57.3053C104.218 60.3741 103.814 63.4649 102.764 66.3603C101.636 69.4081 99.8703 72.1788 97.5858 74.4865V74.4865Z" fill="#220927"/>
</svg>
