<svg width="102" height="103" viewBox="0 0 102 103" fill="none" xmlns="http://www.w3.org/2000/svg">
<path d="M52.8147 55.7967C52.9719 52.962 54.3574 50.4672 56.4527 48.695C58.6526 46.8651 61.4283 45.8716 64.2897 45.89C67.3072 45.89 70.0697 46.9525 72.1309 48.695C74.2219 50.4672 75.6117 52.9662 75.7689 55.7967C75.9304 58.7122 74.7617 61.4195 72.7047 63.4255C70.4405 65.5856 67.4232 66.7779 64.2939 66.749C61.1618 66.7797 58.1413 65.5873 55.8747 63.4255C53.8219 61.4195 52.6489 58.7122 52.8147 55.7967Z" fill="#220927"/>
<path d="M34.527 61.5343C34.5483 62.6393 34.9053 64.794 35.4323 66.4813C36.5805 70.1099 38.5067 73.4444 41.0763 76.252C43.8308 79.2834 47.1953 81.6978 50.949 83.3368C55.032 85.138 59.449 86.0576 63.9115 86.0355C68.3782 86.041 72.796 85.107 76.8783 83.2943C80.627 81.6355 83.9871 79.2106 86.7425 76.1755C89.3068 73.3589 91.2295 70.0195 92.378 66.3878C92.9386 64.6136 93.2951 62.7814 93.4405 60.9265C93.8412 55.563 92.519 50.2117 89.6665 45.652C87.9256 42.8682 85.702 40.4172 83.1003 38.4143L83.1045 38.41L56.5463 18.0143L56.4783 17.9548C54.7315 16.6203 51.799 16.6245 49.8865 17.9633C47.9443 19.319 47.7275 21.5588 49.4445 22.9783L49.4403 22.9825L60.5158 31.9968L26.758 32.035H26.707C23.919 32.035 21.2373 33.871 20.706 36.183C20.162 38.5418 22.0575 40.4968 24.9603 40.5053L24.956 40.518L42.0708 40.484L11.5218 63.927L11.407 64.0163C8.52979 66.222 7.59904 69.8898 9.40954 72.2145C11.254 74.5775 15.164 74.5775 18.0795 72.223L34.748 58.5848C34.7523 58.5848 34.51 60.425 34.527 61.5343V61.5343ZM77.3585 67.6968C73.9245 71.1988 69.122 73.1835 63.9158 73.192C58.7053 73.2005 53.9028 71.2328 50.4645 67.7393C48.8392 66.1122 47.5863 64.1518 46.7925 61.9933C46.0427 59.9407 45.754 57.7482 45.9468 55.5715C46.1338 53.4253 46.767 51.3768 47.7913 49.528C48.7943 47.7048 50.1798 46.0643 51.8798 44.666C55.2896 41.9241 59.5403 40.4411 63.9158 40.467C68.2871 40.4319 72.5372 41.9026 75.9518 44.632C77.6475 46.0175 79.033 47.6538 80.036 49.4728C81.056 51.3258 81.6935 53.3658 81.8805 55.512C82.0723 57.6884 81.7851 59.8803 81.039 61.9338C80.2371 64.0952 78.9822 66.0602 77.3585 67.6968V67.6968Z" fill="#220927"/>
</svg>
