<svg width="113" height="116" viewBox="0 0 113 116" fill="none" xmlns="http://www.w3.org/2000/svg">
<path fill-rule="evenodd" clip-rule="evenodd" d="M91.1978 80.3404C97.3574 57.354 82.7726 33.6124 58.8127 27.1932C31.7553 19.9362 -6.6478 38.7808 1.8954 62.9531C4.7274 70.9476 10.179 72.8179 20.4627 72.9654L21.1058 72.9772C26.5397 73.0421 28.0678 73.3961 28.528 74.1395C29.2773 75.3667 29.2891 77.3196 28.4454 82.6945C28.0442 85.2315 27.9144 86.1165 27.761 87.503C26.8229 95.9459 28.2507 102.53 33.779 108.489C51.0542 127.092 84.2417 106.289 91.1978 80.3404ZM13.0228 59.0119C8.7217 46.8579 36.2452 33.3528 55.7565 38.5802C73.5568 43.3533 84.2299 60.7288 79.799 77.2783C74.8548 95.7335 51.5852 110.318 42.4284 100.453C39.5964 97.4091 38.8943 94.1523 39.4902 88.801C39.6141 87.6564 39.7321 86.8658 40.1038 84.5176C41.3959 76.2753 41.3782 72.5111 38.5816 67.9622C35.077 62.2569 30.9116 61.2952 21.2533 61.1713L20.6279 61.1595C14.9403 61.0828 13.5892 60.6167 13.0169 59.0119H13.0228Z" fill="#220927"/>
<path d="M30.8999 57C28.9439 57 27.0681 56.223 25.685 54.8399C24.3019 53.4568 23.5249 51.581 23.5249 49.625C23.5249 47.669 24.3019 45.7932 25.685 44.4101C27.0681 43.027 28.9439 42.25 30.8999 42.25C32.8559 42.25 34.7317 43.027 36.1148 44.4101C37.4979 45.7932 38.2749 47.669 38.2749 49.625C38.2749 51.581 37.4979 53.4568 36.1148 54.8399C34.7317 56.223 32.8559 57 30.8999 57Z" fill="#220927"/>
<path d="M53.0249 57C51.0689 57 49.1931 56.223 47.81 54.8399C46.4269 53.4568 45.6499 51.581 45.6499 49.625C45.6499 47.669 46.4269 45.7932 47.81 44.4101C49.1931 43.027 51.0689 42.25 53.0249 42.25C54.9809 42.25 56.8567 43.027 58.2398 44.4101C59.6229 45.7932 60.3999 47.669 60.3999 49.625C60.3999 51.581 59.6229 53.4568 58.2398 54.8399C56.8567 56.223 54.9809 57 53.0249 57Z" fill="#220927"/>
<path d="M67.7749 74.7002C65.8189 74.7002 63.9431 73.9232 62.56 72.5401C61.1769 71.157 60.3999 69.2812 60.3999 67.3252C60.3999 65.3692 61.1769 63.4934 62.56 62.1103C63.9431 60.7272 65.8189 59.9502 67.7749 59.9502C69.7309 59.9502 71.6067 60.7272 72.9898 62.1103C74.3729 63.4934 75.1499 65.3692 75.1499 67.3252C75.1499 69.2812 74.3729 71.157 72.9898 72.5401C71.6067 73.9232 69.7309 74.7002 67.7749 74.7002Z" fill="#220927"/>
<path d="M58.9251 95.3501C56.9691 95.3501 55.0932 94.5731 53.7101 93.19C52.3271 91.8069 51.55 89.9311 51.55 87.9751C51.55 86.0191 52.3271 84.1433 53.7101 82.7602C55.0932 81.3771 56.9691 80.6001 58.9251 80.6001C60.881 80.6001 62.7569 81.3771 64.14 82.7602C65.523 84.1433 66.3001 86.0191 66.3001 87.9751C66.3001 89.9311 65.523 91.8069 64.14 93.19C62.7569 94.5731 60.881 95.3501 58.9251 95.3501Z" fill="#220927"/>
<path d="M80.2824 19.2702C80.9819 18.8954 81.7499 18.6656 82.5404 18.5945C83.3308 18.5234 84.1275 18.6126 84.8827 18.8566C85.6379 19.1006 86.3361 19.4945 86.9355 20.0147C87.535 20.5348 88.0233 21.1706 88.3713 21.8839L112.52 71.4439C112.923 72.3347 112.972 73.3456 112.656 74.2712C112.341 75.1967 111.685 75.9674 110.822 76.4265C109.958 76.8856 108.952 76.9987 108.009 76.7428C107.065 76.4868 106.254 75.8811 105.741 75.0488L77.9637 27.4358C77.5644 26.7508 77.3075 25.9923 77.2085 25.2057C77.1094 24.4191 77.1703 23.6205 77.3874 22.858C77.6044 22.0955 77.9733 21.3846 78.4718 20.7681C78.9702 20.1516 79.5881 19.6421 80.2883 19.2702H80.2824Z" fill="#220927"/>
<path fill-rule="evenodd" clip-rule="evenodd" d="M69.4678 18.556C72.3411 23.9545 77.1732 25.4649 81.846 22.981C86.5129 20.503 87.9702 15.6473 85.0969 10.2488C81.8165 4.06555 74.7837 -1.53945 70.1227 0.932652C65.4617 3.41065 66.1815 12.3728 69.4737 18.556H69.4678ZM74.6775 15.783C73.6328 13.6851 72.9923 11.4094 72.7895 9.07465C72.7017 8.0986 72.7374 7.11537 72.8957 6.14825L73.0019 6.20135C73.2969 6.34295 74.2114 6.76775 75.3796 7.69995C77.1614 9.12185 78.9314 11.2164 79.8872 13.0159C81.2383 15.5529 80.8548 16.8273 79.073 17.7772C77.303 18.7212 76.0286 18.32 74.6775 15.7889V15.783Z" fill="#220927"/>
</svg>
