<svg width="64" height="65" viewBox="0 0 64 65" fill="none" xmlns="http://www.w3.org/2000/svg">
<path fill-rule="evenodd" clip-rule="evenodd" d="M0 10.1562C0 4.54711 4.47715 0 10 0H54C59.5228 0 64 4.54711 64 10.1562V54.8438C64 60.4529 59.5228 65 54 65H10C4.47715 65 0 60.4529 0 54.8438V10.1562ZM44.2 23.3594C45.6 23.1562 46.8 22.9531 48 22.3438C47.2 23.7656 46 24.9844 44.6 25.7969C45 35.3438 38.2 45.7031 26 45.7031C22.4 45.7031 19 44.4844 16 42.6562C19.4 43.0625 23 42.0469 25.4 40.2188C22.4 40.2188 20 38.1875 19.2 35.5469C20.2 35.75 21.2 35.5469 22.2 35.3438C19.2 34.5312 17 31.6875 17 28.6406C18 29.0469 19 29.4531 20 29.4531C17.2 27.4219 16.2 23.5625 18 20.5156C21.4 24.5781 26.2 27.2188 31.6 27.4219C30.6 23.3594 33.8 19.2969 38 19.2969C39.8 19.2969 41.6 20.1094 42.8 21.3281C44.4 20.9219 45.8 20.5156 47 19.7031C46.6 21.3281 45.6 22.5469 44.2 23.3594Z" fill="#B50A34"/>
</svg>
