<svg width="123" height="121" viewBox="0 0 123 121" fill="none" xmlns="http://www.w3.org/2000/svg">
<path d="M97.4899 33.275C93.8299 27.225 87.1199 24.2 79.7999 24.2H43.1999C35.8799 24.2 29.1699 27.225 25.5099 33.275C11.4799 54.45 8.42989 86.5149 18.1899 93.17C27.9499 99.825 49.9099 70.785 61.4999 70.785C73.0899 70.785 94.4399 99.825 104.81 93.17C114.57 86.5149 111.52 54.45 97.4899 33.275ZM49.2999 54.45H43.1999V60.5H37.0999V54.45H30.9999V48.4H37.0999V42.35H43.1999V48.4H49.2999V54.45ZM82.2399 57.475C82.2399 60.5 79.7999 62.9199 76.7499 62.9199C73.6999 62.9199 71.2599 60.5 71.2599 57.475C71.2599 54.45 73.6999 52.03 76.7499 52.03C79.7999 52.03 82.2399 54.45 82.2399 57.475ZM93.8299 45.375C93.8299 48.4 91.3899 50.82 88.3399 50.82C85.2899 50.82 82.8499 48.4 82.8499 45.375C82.8499 42.35 85.2899 39.93 88.3399 39.93C91.3899 39.93 93.8299 42.35 93.8299 45.375Z" fill="#220927"/>
</svg>
