<svg width="75" height="91" viewBox="0 0 75 91" fill="none" xmlns="http://www.w3.org/2000/svg">
<path d="M63.6701 9.47913H11.3299C10.8021 9.47919 10.2802 9.58944 9.79745 9.80281C9.31472 10.0162 8.88186 10.328 8.52656 10.7183C8.17126 11.1085 7.90135 11.5687 7.7341 12.0693C7.56686 12.5699 7.50596 13.0998 7.55531 13.6253L12.6513 67.9713C12.713 68.6327 12.9474 69.2663 13.3311 69.8086C13.7147 70.351 14.2341 70.783 14.8372 71.0615L35.9113 80.7871C36.4094 81.017 36.9514 81.136 37.5 81.136C38.0486 81.136 38.5906 81.017 39.0887 80.7871L60.1628 71.0615C60.7663 70.7833 61.286 70.3514 61.67 69.809C62.054 69.2666 62.2887 68.6329 62.3506 67.9713L67.4447 13.6253C67.494 13.0998 67.4331 12.5699 67.2659 12.0693C67.0986 11.5687 66.8287 11.1085 66.4734 10.7183C66.1181 10.328 65.6853 10.0162 65.2025 9.80281C64.7198 9.58944 64.1979 9.47919 63.6701 9.47913Z" stroke="#220927" stroke-width="6"/>
<path d="M52.6666 22.75H22.3333L24.2291 39.8125H50.7708L48.8749 60.6667L37.4999 66.3542L26.1249 60.6667L25.177 51.1875" stroke="#220927" stroke-width="6" stroke-linecap="round" stroke-linejoin="round"/>
</svg>
