<svg width="65" height="65" viewBox="0 0 65 65" fill="none" xmlns="http://www.w3.org/2000/svg">
<path fill-rule="evenodd" clip-rule="evenodd" d="M0.3573 10.5C0.3573 4.97715 4.83445 0.5 10.3573 0.5H54.3573C59.8801 0.5 64.3573 4.97715 64.3573 10.5V54.5C64.3573 60.0228 59.8801 64.5 54.3573 64.5H10.3573C4.83445 64.5 0.3573 60.0228 0.3573 54.5V10.5ZM16.7573 27.1V48.5H23.5573V27.1H16.7573ZM16.3573 20.3C16.3573 22.5 17.9573 24.1 20.1573 24.1C22.3573 24.1 23.9573 22.5 23.9573 20.3C23.9573 18.1 22.3573 16.5 20.1573 16.5C18.1573 16.5 16.3573 18.1 16.3573 20.3ZM41.5573 48.5H47.9573V35.3C47.9573 28.7 43.9573 26.5 40.1573 26.5C36.7573 26.5 34.3573 28.7 33.7573 30.1V27.1H27.3573V48.5H34.1573V37.1C34.1573 34.1 36.1573 32.5 38.1573 32.5C40.1573 32.5 41.5573 33.5 41.5573 36.9V48.5Z" fill="#B50A34"/>
</svg>
