<svg width="103" height="103" viewBox="0 0 103 103" fill="none" xmlns="http://www.w3.org/2000/svg">
<path d="M42.2729 36.1358C40.685 35.4921 38.9683 35.2346 37.2087 35.2775C36.0929 35.2775 35.1058 35.2775 34.2904 35.3204C33.4321 35.2775 32.8312 35.3204 32.5308 35.3633V49.7833C33.1317 49.8262 33.6896 49.8691 34.2046 49.8691H36.4792C38.1529 49.8691 39.8267 49.6116 41.4146 49.0966C42.7879 48.7104 43.9896 47.895 44.9337 46.8221C45.835 45.7491 46.2642 44.29 46.2642 42.4016C46.3071 41.0712 45.9637 39.7408 45.2771 38.5821C44.5615 37.4678 43.5091 36.6108 42.2729 36.1358ZM84.7604 1.28748H18.2396C8.15417 1.28748 0 9.44164 0 19.5271V83.4686C0 93.554 8.15417 101.708 18.2396 101.708H84.7604C94.8458 101.708 103 93.554 103 83.4686V19.5271C103 9.44164 94.8458 1.28748 84.7604 1.28748ZM53.0407 51.2854C51.3283 53.6887 48.925 55.4912 46.1354 56.5212C43.2171 57.5941 39.9983 57.9804 36.4792 57.9804C35.4492 57.9804 34.7625 57.9804 34.3333 57.9375C33.9042 57.8946 33.3033 57.8946 32.4879 57.8946V71.6665C32.5308 71.9669 32.3162 72.2287 32.0158 72.2716H23.69C23.3467 72.2716 23.175 72.0957 23.175 71.7094V27.5525C23.175 27.2521 23.3037 27.0804 23.6042 27.0804C24.3337 27.0804 25.0204 27.0804 26.0075 27.0375C27.0375 26.9946 28.1104 26.9946 29.2692 26.9516C30.4279 26.9087 31.6725 26.9087 33.0029 26.8658C34.3333 26.8229 35.6208 26.8229 36.9083 26.8229C40.4275 26.8229 43.3458 27.2521 45.7492 28.1533C47.895 28.8829 49.8692 30.0846 51.5 31.6725C52.8733 33.0458 53.9462 34.7196 54.6329 36.565C55.2724 38.3675 55.6157 40.2129 55.6157 42.1441C55.62 45.835 54.7617 48.8821 53.0407 51.2854V51.2854ZM83.4729 67.98C82.2713 69.6966 80.5932 71.0228 78.6662 71.8039C76.5633 72.7008 73.9883 73.1686 70.894 73.1686C68.9242 73.1686 66.9886 73.0012 65.0617 72.615C63.5596 72.3532 62.0575 71.8854 60.6842 71.2416C60.3837 71.0743 60.1649 70.7738 60.2078 70.4305V62.963C60.2078 62.8386 60.255 62.6626 60.3837 62.5768C60.5082 62.4909 60.6412 62.5338 60.77 62.6197C62.4437 63.6068 64.2033 64.2977 66.0917 64.7226C67.7182 65.1518 69.4349 65.3663 71.1558 65.3663C72.7867 65.3663 73.9454 65.1475 74.7179 64.7612C75.4046 64.4608 75.8767 63.7312 75.8767 62.9587C75.8767 62.3536 75.5333 61.8 74.8467 61.2421C74.16 60.6884 72.748 60.0447 70.6451 59.2207C68.4564 58.4482 66.4436 57.4182 64.551 56.135C63.208 55.1731 62.093 53.9278 61.285 52.4871C60.6029 51.1292 60.2654 49.6244 60.3022 48.1053C60.3022 46.2598 60.8172 44.5003 61.7657 42.9123C62.8386 41.1957 64.4222 39.8224 66.2676 38.964C68.2804 37.9383 70.8125 37.4662 73.8596 37.4662C75.6192 37.4662 77.4217 37.595 79.1813 37.8525C80.4688 38.0241 81.7133 38.3675 82.8721 38.8396C83.0395 38.8825 83.2154 39.0541 83.3012 39.2258C83.3442 39.3975 83.3871 39.5691 83.3871 39.7408V46.7362C83.3871 46.9079 83.3012 47.0796 83.1725 47.1654C82.7862 47.2512 82.5717 47.2512 82.4 47.1654C81.1125 46.4787 79.7392 46.0066 78.28 45.7062C76.6921 45.3629 75.1042 45.1483 73.4733 45.1483C72.615 45.1054 71.7137 45.2341 70.894 45.4487C70.3404 45.5775 69.864 45.8779 69.5636 46.3071C69.349 46.6504 69.2203 47.0796 69.2203 47.4658C69.2203 47.8521 69.392 48.2383 69.6537 48.5816C70.04 49.0537 70.5507 49.44 71.1129 49.7404C72.0957 50.2554 73.13 50.7275 74.1557 51.1566C76.4775 51.9291 78.7092 53.0021 80.7692 54.2896C82.1854 55.1865 83.3442 56.3925 84.1553 57.8516C84.842 59.2164 85.1853 60.7271 85.1424 62.2678C85.1896 64.2891 84.5888 66.3019 83.4729 67.98V67.98Z" fill="#220927"/>
</svg>
