<svg width="65" height="65" viewBox="0 0 65 65" fill="none" xmlns="http://www.w3.org/2000/svg">
<path fill-rule="evenodd" clip-rule="evenodd" d="M10 0C4.47715 0 0 4.47715 0 10V55C0 60.5228 4.47715 65 10 65H55C60.5228 65 65 60.5228 65 55V38.0505C62.9002 49.4155 55.1338 58.7937 44.7404 63.1454C48.7827 61.4391 52.4906 58.9533 55.6363 55.7911C60.5285 50.8732 63.7773 44.604 65 37.8426V10C65 4.47715 60.5228 0 55 0H10ZM40.1319 16.3348L48.5823 21.2522C48.5823 21.2522 31.4441 30.4088 31.3876 30.4088C31.331 30.4088 14.1645 21.3088 14.1306 21.2805L22.5923 16.2783L31.0484 11.3044L40.1319 16.3348ZM21.8293 30.8214L28.827 34.6761V51.4066L21.6851 47.4501L14.7326 43.4088V27.1305L21.8293 30.8214ZM48.5682 35.264V43.5274L41.545 47.6027L34.4795 51.6807V34.6564L41.5139 30.8553L48.5795 27.0259L48.5682 35.264Z" fill="#B50A34"/>
</svg>
